<svg width="12" height="12" viewBox="0 0 12 12" fill="none" xmlns="http://www.w3.org/2000/svg">
<path d="M10 6.5C10 6.77344 9.77344 7 9.5 7H5.57813L7.05469 8.47656C7.14844 8.57031 7.19531 8.69531 7.19531 8.82812C7.19531 8.96094 7.14844 9.08594 7.05469 9.17969L6.34375 9.89062C6.25 9.98437 6.125 10.0312 5.99219 10.0312C5.85938 10.0312 5.73438 9.98437 5.64063 9.89062L2.8125 7.0625L2.10156 6.35156C2.00781 6.25781 1.96094 6.13281 1.96094 6C1.96094 5.86719 2.00781 5.74219 2.10156 5.64844L2.8125 4.9375L5.64063 2.10937C5.73438 2.01562 5.85938 1.96875 5.99219 1.96875C6.125 1.96875 6.25 2.01562 6.34375 2.10937L7.05469 2.82031C7.14844 2.91406 7.20313 3.03906 7.20313 3.17187C7.20313 3.30469 7.14844 3.42969 7.05469 3.52344L5.57813 5H9.5C9.77344 5 10 5.22656 10 5.5V6.5ZM12 6C12 2.6875 9.3125 -5.96046e-07 6 -5.96046e-07C2.6875 -5.96046e-07 0 2.6875 0 6C0 9.3125 2.6875 12 6 12C9.3125 12 12 9.3125 12 6Z" fill="#7AC1FF"/>
</svg>
