<svg width="12" height="12" viewBox="0 0 12 12" fill="none" xmlns="http://www.w3.org/2000/svg">
<path d="M11.1429 6.35714C11.1429 3.2885 8.64007 0.785714 5.57143 0.785714C4.1423 0.785714 2.7567 1.35882 1.73382 2.32366L0.790737 1.38783C0.660156 1.25 0.457031 1.21373 0.290179 1.28627C0.116071 1.35882 0 1.52567 0 1.71429V4.96429C0 5.21819 0.210379 5.42857 0.464286 5.42857H3.71429C3.9029 5.42857 4.06975 5.3125 4.1423 5.13839C4.21484 4.97154 4.17857 4.76841 4.04074 4.63783L3.04688 3.63672C3.72154 3.00558 4.62109 2.64286 5.57143 2.64286C7.61719 2.64286 9.28571 4.31138 9.28571 6.35714C9.28571 8.4029 7.61719 10.0714 5.57143 10.0714C4.41797 10.0714 3.35156 9.54911 2.64063 8.62779C2.60435 8.57701 2.53906 8.54799 2.47377 8.54074C2.40848 8.54074 2.34319 8.5625 2.29241 8.60603L1.29855 9.60714C1.21875 9.68694 1.2115 9.82478 1.28404 9.91908C2.34319 11.1959 3.91016 11.9286 5.57143 11.9286C8.64007 11.9286 11.1429 9.42578 11.1429 6.35714Z" fill="#7AC1FF"/>
</svg>
