<svg width="13" height="16" viewBox="0 0 13 16" fill="none" xmlns="http://www.w3.org/2000/svg">
<path d="M7.50391 5.84766C7.66797 6.01172 7.75 6.21094 7.75 6.44531V12.2812C7.75 12.5156 7.66797 12.7148 7.50391 12.8789C7.33984 13.043 7.14062 13.125 6.90625 13.125H1.84375C1.60938 13.125 1.41016 13.043 1.24609 12.8789C1.08203 12.7148 1 12.5156 1 12.2812V4.96875C1 4.73438 1.08203 4.53516 1.24609 4.37109C1.41016 4.20703 1.60938 4.125 1.84375 4.125H5.42969C5.66406 4.125 5.86328 4.20703 6.02734 4.37109L7.50391 5.84766ZM6.83594 6.375L5.5 5.03906V6.375H6.83594ZM1.84375 12.2812H6.90625V7.21875H5.07812C4.96094 7.21875 4.86133 7.17773 4.7793 7.0957C4.69727 7.01367 4.65625 6.91406 4.65625 6.79688V4.96875H1.84375V12.2812Z" fill="#999999"/>
<path d="M12.5039 3.84766C12.668 4.01172 12.75 4.21094 12.75 4.44531V10.2812C12.75 10.5156 12.668 10.7148 12.5039 10.8789C12.3398 11.043 12.1406 11.125 11.9062 11.125H6.84375C6.60938 11.125 6.41016 11.043 6.24609 10.8789C6.08203 10.7148 6 10.5156 6 10.2812V2.96875C6 2.73438 6.08203 2.53516 6.24609 2.37109C6.41016 2.20703 6.60938 2.125 6.84375 2.125H10.4297C10.6641 2.125 10.8633 2.20703 11.0273 2.37109L12.5039 3.84766ZM11.8359 4.375L10.5 3.03906V4.375H11.8359ZM6.84375 10.2812H11.9062V5.21875H10.0781C9.96094 5.21875 9.86133 5.17773 9.7793 5.0957C9.69727 5.01367 9.65625 4.91406 9.65625 4.79688V2.96875H6.84375V10.2812Z" fill="#999999"/>
<path d="M11.5039 7.84766C11.668 8.01172 11.75 8.21094 11.75 8.44531V14.2812C11.75 14.5156 11.668 14.7148 11.5039 14.8789C11.3398 15.043 11.1406 15.125 10.9062 15.125H5.84375C5.60938 15.125 5.41016 15.043 5.24609 14.8789C5.08203 14.7148 5 14.5156 5 14.2812V6.96875C5 6.73438 5.08203 6.53516 5.24609 6.37109C5.41016 6.20703 5.60938 6.125 5.84375 6.125H9.42969C9.66406 6.125 9.86328 6.20703 10.0273 6.37109L11.5039 7.84766ZM10.8359 8.375L9.5 7.03906V8.375H10.8359ZM5.84375 14.2812H10.9062V9.21875H9.07812C8.96094 9.21875 8.86133 9.17773 8.7793 9.0957C8.69727 9.01367 8.65625 8.91406 8.65625 8.79688V6.96875H5.84375V14.2812Z" fill="#999999"/>
<path d="M6.61607 4.83036L5.42857 4.14286L6.61607 3.45536C6.88839 3.29911 6.98214 2.94643 6.82589 2.67411L6.54018 2.18304C6.38393 1.91071 6.03125 1.81696 5.75893 1.97321L4.57143 2.65625V1.28571C4.57143 0.973214 4.3125 0.714285 4 0.714285H3.42857C3.11607 0.714285 2.85714 0.973214 2.85714 1.28571V2.65625L1.66964 1.97321C1.39732 1.81696 1.04464 1.91071 0.888393 2.18304L0.602679 2.67411C0.446429 2.94643 0.540179 3.29911 0.8125 3.45536L2 4.14286L0.8125 4.83036C0.540179 4.98661 0.446429 5.33929 0.602679 5.61161L0.888393 6.10268C1.04464 6.375 1.39732 6.46875 1.66964 6.3125L2.85714 5.62946V7C2.85714 7.3125 3.11607 7.57143 3.42857 7.57143H4C4.3125 7.57143 4.57143 7.3125 4.57143 7V5.62946L5.75893 6.3125C6.03125 6.46875 6.38393 6.375 6.54018 6.10268L6.82589 5.61161C6.98214 5.33929 6.88839 4.98661 6.61607 4.83036Z" fill="#F0CA94"/>
</svg>
