<svg width="14" height="11" viewBox="0 0 14 11" fill="none" xmlns="http://www.w3.org/2000/svg">
<path d="M13.6311 6.76339C13.6311 6.43694 13.2612 6.35714 13 6.35714H5.10714C4.46875 6.35714 3.61272 6.74888 3.19196 7.24219L0.754464 10.115C0.638393 10.2455 0.529576 10.4196 0.529576 10.5938C0.529576 10.9202 0.899554 11 1.16071 11H9.05357C9.69196 11 10.548 10.6083 10.9688 10.115L13.4062 7.24219C13.5223 7.11161 13.6311 6.9375 13.6311 6.76339ZM11.1429 4.26786C11.1429 3.37556 10.4102 2.64286 9.51786 2.64286H5.57143V2.41071C5.57143 1.51841 4.83873 0.785714 3.94643 0.785714H1.625C0.732701 0.785714 0 1.51841 0 2.41071V9.375C0 9.43304 0.00725446 9.49833 0.00725446 9.55636L0.0435268 9.51283L2.48828 6.64007C3.07589 5.94364 4.20033 5.42857 5.10714 5.42857H11.1429V4.26786Z" fill="#B5935F"/>
</svg>
