<svg width="12" height="12" viewBox="0 0 12 12" fill="none" xmlns="http://www.w3.org/2000/svg">
<path d="M9.375 0H2.625H0V12H1.125H10.875H12V2.35988L9.64013 0H9.375ZM9 0.375V3.5625H3V0.375H9ZM11.625 11.625H10.875H1.125H0.375V0.375H2.625V3.9375H9.375V0.375H9.48487L11.625 2.51512V11.625Z" fill="#7AC1FF"/>
<path d="M10.5 11.625H1.5H1.125H0.375V0.375H2.625V3.9375H9.375V0.375H9.48487L11.625 2.51512V11.625H10.875H10.5Z" fill="#7AC1FF"/>
<path d="M7.6 2.53846H6.4V0.461538H7.6V2.53846Z" fill="#7AC1FF"/>
<path fill-rule="evenodd" clip-rule="evenodd" d="M8 0H6V3H8V0ZM6.4 2.53846H7.6V0.461538H6.4V2.53846Z" fill="#7AC1FF"/>
</svg>
