<svg width="14" height="14" viewBox="0 0 14 14" fill="none" xmlns="http://www.w3.org/2000/svg">
<path d="M12.25 0H7.75H6V8H6.75H13.25H14V1.57325L12.4268 0H12.25ZM12 0.25V2.375H8V0.25H12ZM13.75 7.75H13.25H6.75H6.25V0.25H7.75V2.625H12.25V0.25H12.3232L13.75 1.67675V7.75Z" fill="#7AC1FF"/>
<path d="M13 7.75H7H6.75H6.25V0.25H7.75V2.625H12.25V0.25H12.3232L13.75 1.67675V7.75H13.25H13Z" fill="#7AC1FF"/>
<path d="M11.0667 1.69231H10.2667V0.307692H11.0667V1.69231Z" fill="#7AC1FF"/>
<path fill-rule="evenodd" clip-rule="evenodd" d="M11.3333 0H10V2H11.3333V0ZM10.2667 1.69231H11.0667V0.307692H10.2667V1.69231Z" fill="#7AC1FF"/>
<path d="M6.25 6H1.75H0V14H0.75H7.25H8V7.57325L6.42675 6H6.25ZM6 6.25V8.375H2V6.25H6ZM7.75 13.75H7.25H0.75H0.25V6.25H1.75V8.625H6.25V6.25H6.32325L7.75 7.67675V13.75Z" fill="#7AC1FF"/>
<path d="M7 13.75H1H0.75H0.25V6.25H1.75V8.625H6.25V6.25H6.32325L7.75 7.67675V13.75H7.25H7Z" fill="#7AC1FF"/>
<path d="M5.06667 7.69231H4.26667V6.30769H5.06667V7.69231Z" fill="#7AC1FF"/>
<path fill-rule="evenodd" clip-rule="evenodd" d="M5.33333 6H4V8H5.33333V6ZM4.26667 7.69231H5.06667V6.30769H4.26667V7.69231Z" fill="#7AC1FF"/>
</svg>
