<svg width="263" height="263" viewBox="0 0 263 263" fill="none" xmlns="http://www.w3.org/2000/svg">
<g clip-path="url(#clip0)">
<path d="M119.769 239.538C185.916 239.538 239.538 185.916 239.538 119.769C239.538 53.6224 185.916 0 119.769 0C53.6224 0 0 53.6224 0 119.769C0 185.916 53.6224 239.538 119.769 239.538Z" fill="#6E64C3"/>
<path d="M151.764 13.3556L118.712 0L60.4931 56.4135L25.3189 29.7298L11.9768 36.4009L12.148 106.893L96.7021 191.447C155.891 184.179 201.725 133.736 201.725 72.5828C201.725 69.3327 201.591 66.1139 201.337 62.9288L151.764 13.3556Z" fill="#5046AF"/>
<path d="M151.764 13.3556L118.712 0L60.4931 56.4135L25.3189 29.7298L11.9768 36.4009L12.148 106.893L25.4901 113.564L60.6643 86.8807L118.883 143.294L151.935 129.939L151.764 13.3556ZM28.8259 86.5775V56.7171L45.332 71.6471H45.5032L28.8259 86.5775ZM115.396 96.508L82.2129 71.6471H82.0417L115.396 46.7861V96.508Z" fill="white"/>
</g>
<rect opacity="0.9" x="86" y="192" width="177" height="71" fill="#7AC1FF"/>
<path d="M162.835 212.355L174.985 237.465C175.495 238.485 175.75 239.25 175.75 239.76C175.75 240.84 174.88 241.815 173.14 242.685C172.12 243.195 171.31 243.45 170.71 243.45C170.14 243.45 169.66 243.315 169.27 243.045C168.91 242.775 168.64 242.49 168.46 242.19C168.31 241.89 168.085 241.44 167.785 240.84L165.445 235.98H152.98L150.64 240.84C150.34 241.44 150.1 241.875 149.92 242.145C149.77 242.415 149.5 242.7 149.11 243C148.75 243.27 148.27 243.405 147.67 243.405C147.1 243.405 146.305 243.15 145.285 242.64C143.545 241.8 142.675 240.84 142.675 239.76C142.675 239.25 142.93 238.485 143.44 237.465L155.59 212.31C155.92 211.62 156.415 211.065 157.075 210.645C157.765 210.225 158.485 210.015 159.235 210.015C160.855 210.015 162.055 210.795 162.835 212.355ZM159.19 223.155L156.22 229.32H162.205L159.19 223.155ZM191.844 227.115H195.489C196.539 227.115 197.304 227.25 197.784 227.52C198.264 227.76 198.579 228.135 198.729 228.645C198.909 229.155 198.999 229.845 198.999 230.715C198.999 231.555 198.924 232.23 198.774 232.74C198.624 233.25 198.369 233.61 198.009 233.82C197.469 234.09 196.704 234.225 195.714 234.225H191.844V237.87C191.844 238.92 191.709 239.685 191.439 240.165C191.199 240.645 190.824 240.975 190.314 241.155C189.804 241.305 189.114 241.38 188.244 241.38C187.404 241.38 186.729 241.305 186.219 241.155C185.709 240.975 185.349 240.69 185.139 240.3C184.869 239.73 184.734 238.905 184.734 237.825V234.225H180.819C179.829 234.225 179.109 234.105 178.659 233.865C178.209 233.625 177.909 233.25 177.759 232.74C177.609 232.2 177.534 231.51 177.534 230.67C177.534 229.83 177.609 229.155 177.759 228.645C177.939 228.105 178.239 227.73 178.659 227.52C179.229 227.25 180.054 227.115 181.134 227.115H184.734V223.47C184.734 222.42 184.854 221.655 185.094 221.175C185.334 220.695 185.709 220.38 186.219 220.23C186.759 220.05 187.449 219.96 188.289 219.96C189.129 219.96 189.804 220.05 190.314 220.23C190.854 220.38 191.229 220.65 191.439 221.04C191.709 221.61 191.844 222.435 191.844 223.515V227.115Z" fill="#F1F1F1"/>
<defs>
<clipPath id="clip0">
<rect width="239.538" height="239.538" fill="white"/>
</clipPath>
</defs>
</svg>
